<svg width="13" height="9" viewBox="0 0 13 9" fill="none" xmlns="http://www.w3.org/2000/svg">
<path d="M1.95837 0C1.33728 0 0.833374 0.503906 0.833374 1.125C0.833374 1.47891 0.99978 1.81172 1.28337 2.025L6.38337 5.85C6.65056 6.04922 7.01619 6.04922 7.28337 5.85L12.3834 2.025C12.667 1.81172 12.8334 1.47891 12.8334 1.125C12.8334 0.503906 12.3295 0 11.7084 0H1.95837ZM0.833374 2.625V7.5C0.833374 8.32734 1.50603 9 2.33337 9H11.3334C12.1607 9 12.8334 8.32734 12.8334 7.5V2.625L7.73337 6.45C7.199 6.85078 6.46775 6.85078 5.93337 6.45L0.833374 2.625Z" fill="black"/>
</svg>
