<svg width="19" height="18" viewBox="0 0 19 18" fill="none" xmlns="http://www.w3.org/2000/svg">
<path d="M9.02344 0C4.05094 0 0.0234375 4.0275 0.0234375 9C0.0234375 13.9725 4.05094 18 9.02344 18C13.9959 18 18.0234 13.9725 18.0234 9C18.0234 4.0275 13.9959 0 9.02344 0ZM9.92344 15.3H8.12344V13.5H9.92344V15.3ZM11.7819 8.3295L10.9764 9.1575C10.3284 9.8055 9.92344 10.35 9.92344 11.7H8.12344V11.25C8.12344 10.2555 8.52844 9.3555 9.17644 8.703L10.2969 7.569C10.6209 7.245 10.8234 6.795 10.8234 6.3C10.8234 5.3055 10.0179 4.5 9.02344 4.5C8.02894 4.5 7.22344 5.3055 7.22344 6.3H5.42344C5.42344 4.311 7.03444 2.7 9.02344 2.7C11.0124 2.7 12.6234 4.311 12.6234 6.3C12.6234 7.092 12.3039 7.8075 11.7819 8.3295Z" fill="black"/>
</svg>
