<svg width="16" height="20" viewBox="0 0 16 20" fill="none" xmlns="http://www.w3.org/2000/svg">
<path fill-rule="evenodd" clip-rule="evenodd" d="M8.414 13L9.707 14.293C10.097 14.683 10.097 15.317 9.707 15.707C9.317 16.097 8.683 16.097 8.293 15.707L5.293 12.707C4.902 12.317 4.902 11.683 5.293 11.293L8.293 8.293C8.683 7.903 9.317 7.903 9.707 8.293C10.097 8.683 10.097 9.317 9.707 9.707L8.414 11H14C14.53 11 15.039 11.211 15.414 11.586C15.789 11.961 16 12.47 16 13C16 14.281 16 15.902 16 17C16 18.657 14.657 20 13 20H1C0.448 20 0 19.552 0 19C0 19 0 7.69 0 3C0 2.204 0.316 1.441 0.879 0.879C1.441 0.316 2.204 0 3 0C5.223 0 8.726 0 10.459 0C11.438 0 12.355 0.478 12.916 1.28C13.646 2.322 14.857 4.051 15.458 4.91C15.811 5.414 16 6.015 16 6.63V8C16 8.552 15.552 9 15 9C14.448 9 14 8.552 14 8C14 8 14 7.217 14 6.63C14 6.425 13.937 6.225 13.819 6.057C13.218 5.198 12.007 3.469 11.278 2.427C11.091 2.159 10.785 2 10.459 2C8.726 2 5.223 2 3 2C2.735 2 2.48 2.105 2.293 2.293C2.105 2.48 2 2.735 2 3V18H13C13.552 18 14 17.552 14 17V13H8.414Z" fill="white"/>
</svg>
