<svg width="16" height="17" viewBox="0 0 16 17" fill="none" xmlns="http://www.w3.org/2000/svg">
<path fill-rule="evenodd" clip-rule="evenodd" d="M2.98328 4.27957C1.88655 4.27957 0.997465 5.16866 0.997465 6.26539V13.5976C0.997465 14.6944 1.88655 15.5835 2.98328 15.5835H10.3155C11.4123 15.5835 12.3014 14.6944 12.3014 13.5976V9.93152H13.2179V13.5976C13.2179 15.2006 11.9185 16.5 10.3155 16.5H2.98328C1.38036 16.5 0.0809326 15.2006 0.0809326 13.5976V6.26539C0.0809326 4.66247 1.38036 3.36304 2.98328 3.36304H6.64941V4.27957H2.98328Z" fill="white"/>
<path fill-rule="evenodd" clip-rule="evenodd" d="M9.09492 2.75202L13.2193 2.75202C13.4724 2.75202 13.6776 2.95719 13.6776 3.21028L13.6776 7.33468C13.6776 7.58777 13.4724 7.79294 13.2193 7.79294C12.9662 7.79294 12.761 7.58777 12.761 7.33468V4.31664L5.44588 11.6318L4.79779 10.9837L12.113 3.66855L9.09491 3.66855C8.84182 3.66855 8.63665 3.46338 8.63665 3.21028C8.63665 2.95719 8.84182 2.75202 9.09492 2.75202Z" fill="white"/>
</svg>
