<svg width="10" height="13" viewBox="0 0 10 13" fill="none" xmlns="http://www.w3.org/2000/svg">
<path d="M5.1053 0.5C3.83267 0.501429 2.61257 1.00761 1.71268 1.9075C0.81279 2.80739 0.306605 4.02749 0.305176 5.30013C0.305176 7.25318 1.72301 8.87502 3.22485 10.5917C3.70006 11.1353 4.19208 11.6975 4.63009 12.2663C4.68614 12.339 4.75813 12.3979 4.84052 12.4384C4.92291 12.4789 5.01349 12.5 5.1053 12.5C5.19711 12.5 5.2877 12.4789 5.37008 12.4384C5.45247 12.3979 5.52446 12.339 5.58051 12.2663C6.01852 11.6975 6.51054 11.1353 6.98575 10.5917C8.48759 8.87502 9.90543 7.25318 9.90543 5.30013C9.904 4.02749 9.39781 2.80739 8.49792 1.9075C7.59803 1.00761 6.37793 0.501429 5.1053 0.5ZM5.1053 7.10017C4.74929 7.10017 4.40126 6.9946 4.10525 6.79681C3.80923 6.59902 3.57852 6.31789 3.44227 5.98897C3.30603 5.66006 3.27039 5.29813 3.33984 4.94895C3.4093 4.59978 3.58073 4.27904 3.83248 4.0273C4.08422 3.77556 4.40495 3.60412 4.75413 3.53467C5.1033 3.46521 5.46523 3.50086 5.79415 3.6371C6.12306 3.77334 6.40419 4.00406 6.60198 4.30007C6.79978 4.59609 6.90535 4.94411 6.90535 5.30013C6.90535 5.77753 6.7157 6.23538 6.37813 6.57295C6.04055 6.91052 5.5827 7.10017 5.1053 7.10017Z" fill="black"/>
</svg>
