<svg width="19" height="19" viewBox="0 0 19 19" fill="none" xmlns="http://www.w3.org/2000/svg">
<path d="M9.80045 0.5C8.6186 0.5 7.44833 0.732782 6.35645 1.18505C5.26457 1.63733 4.27246 2.30023 3.43677 3.13592C1.74901 4.82368 0.800845 7.11276 0.800845 9.4996C0.792977 11.5777 1.51253 13.5931 2.83476 15.1963L1.03483 16.9963C0.909958 17.1228 0.825365 17.2835 0.79173 17.4581C0.758095 17.6327 0.776925 17.8133 0.845843 17.9772C0.920592 18.1392 1.04177 18.2752 1.19399 18.3682C1.34621 18.4611 1.52261 18.5067 1.70081 18.4992H9.80045C12.1873 18.4992 14.4764 17.551 16.1641 15.8633C17.8519 14.1755 18.8 11.8864 18.8 9.4996C18.8 7.11276 17.8519 4.82368 16.1641 3.13592C14.4764 1.44817 12.1873 0.5 9.80045 0.5Z" fill="#494949"/>
</svg>
