<svg width="15" height="18" viewBox="0 0 15 18" fill="none" xmlns="http://www.w3.org/2000/svg">
<path d="M7.02292 18C8.03831 18 8.86908 17.1692 8.86908 16.1538H5.17677C5.17677 17.1692 5.99831 18 7.02292 18ZM12.5614 12.4615V7.84615C12.5614 5.01231 11.0475 2.64 8.40754 2.01231V1.38462C8.40754 0.618462 7.78908 0 7.02292 0C6.25677 0 5.63831 0.618462 5.63831 1.38462V2.01231C2.98908 2.64 1.48446 5.00308 1.48446 7.84615V12.4615L0.293691 13.6523C-0.287848 14.2338 0.118306 15.2308 0.939844 15.2308H13.0968C13.9183 15.2308 14.3337 14.2338 13.7522 13.6523L12.5614 12.4615Z" fill="black"/>
</svg>
