<svg width="13" height="13" viewBox="0 0 13 13" fill="none" xmlns="http://www.w3.org/2000/svg">
<path d="M9.40459 8.05263L8.40333 8.61671C8.28317 8.68435 8.14417 8.71081 8.00756 8.69205C7.87095 8.67329 7.74423 8.61033 7.64676 8.5128L4.30492 5.17096C4.20745 5.07344 4.14455 4.94673 4.12579 4.81014C4.10703 4.67355 4.13344 4.53457 4.20101 4.41439L4.76508 3.41313C4.86662 3.23292 4.90637 3.02443 4.87827 2.81951C4.85017 2.61458 4.75576 2.42449 4.60946 2.27827L3.10877 0.777578C3.02081 0.689578 2.91638 0.61977 2.80143 0.572142C2.68649 0.524514 2.56329 0.5 2.43887 0.5C2.31445 0.5 2.19125 0.524514 2.0763 0.572142C1.96136 0.61977 1.85692 0.689578 1.76897 0.777578L1.08757 1.45849C0.689116 1.85694 0.435306 2.37717 0.366502 2.93645C0.297698 3.49573 0.41785 4.06197 0.707852 4.54511L1.04975 5.11493C2.79572 8.02483 5.26011 10.4373 8.20653 12.1209L8.27404 12.1597C9.28057 12.7348 10.5241 12.5672 11.33 11.7617L12.0416 11.0502C12.1296 10.9622 12.1994 10.8578 12.247 10.7429C12.2946 10.6279 12.3192 10.5047 12.3192 10.3803C12.3192 10.2559 12.2946 10.1327 12.247 10.0177C12.1994 9.90278 12.1296 9.79834 12.0416 9.71039L10.5399 8.20873C10.3937 8.06225 10.2036 7.96768 9.99855 7.93949C9.79352 7.9113 9.5849 7.95104 9.40459 8.05263Z" fill="black"/>
</svg>
