<svg width="19" height="18" viewBox="0 0 19 18" fill="none" xmlns="http://www.w3.org/2000/svg">
<path d="M12.37 11.4978C13.3744 10.2819 14.0088 8.72247 14.0088 7.00441C14.0088 3.14538 10.8634 0 7.00441 0C3.14537 0 0 3.14538 0 7.00441C0 10.8634 3.14537 14.0088 7.00441 14.0088C8.69604 14.0088 10.2819 13.4009 11.4978 12.37L16.9427 17.815C17.0749 17.9471 17.2335 18 17.3921 18C17.5507 18 17.7093 17.9471 17.8414 17.815C18.0793 17.5771 18.0793 17.1542 17.8414 16.9163L12.37 11.4978ZM6.97797 12.7401C3.80617 12.7401 1.24229 10.1762 1.24229 7.00441C1.24229 3.8326 3.80617 1.26872 6.97797 1.26872C10.1498 1.26872 12.7137 3.8326 12.7137 7.00441C12.7137 10.1762 10.1498 12.7401 6.97797 12.7401Z" fill="black"/>
</svg>
