<svg width="21" height="21" viewBox="0 0 21 21" fill="none" xmlns="http://www.w3.org/2000/svg">
<path d="M6.30007 4.50133C6.00339 4.50133 5.71338 4.5893 5.46671 4.75412C5.22004 4.91895 5.02778 5.15321 4.91425 5.4273C4.80071 5.70139 4.77101 6.00299 4.82889 6.29396C4.88677 6.58494 5.02963 6.85221 5.23941 7.06199C5.44918 7.27177 5.71646 7.41463 6.00743 7.47251C6.2984 7.53039 6.6 7.50068 6.87409 7.38715C7.14818 7.27362 7.38245 7.08136 7.54727 6.83468C7.71209 6.58801 7.80007 6.298 7.80007 6.00133C7.80007 5.6035 7.64203 5.22197 7.36073 4.94067C7.07942 4.65936 6.69789 4.50133 6.30007 4.50133ZM19.9201 9.21133L11.5101 0.791329C11.4166 0.698648 11.3058 0.625322 11.184 0.575558C11.0621 0.525793 10.9317 0.500568 10.8001 0.501329H1.80007C1.53485 0.501329 1.2805 0.606686 1.09296 0.794222C0.905422 0.981759 0.800066 1.23611 0.800066 1.50133V10.5013C0.799305 10.6329 0.82453 10.7634 0.874294 10.8852C0.924059 11.0071 0.997384 11.1179 1.09007 11.2113L9.51007 19.6213C10.0726 20.1831 10.8351 20.4987 11.6301 20.4987C12.4251 20.4987 13.1876 20.1831 13.7501 19.6213L19.9201 13.5013C20.4819 12.9388 20.7974 12.1763 20.7974 11.3813C20.7974 10.5863 20.4819 9.82383 19.9201 9.26133V9.21133Z" fill="#494949"/>
<path d="M6.30005 4.50134C6.00338 4.50134 5.71337 4.58932 5.46669 4.75414C5.22002 4.91896 5.02776 5.15323 4.91423 5.42732C4.8007 5.70141 4.77099 6.00301 4.82887 6.29398C4.88675 6.58495 5.02961 6.85222 5.23939 7.062C5.44917 7.27178 5.71644 7.41464 6.00741 7.47252C6.29839 7.5304 6.59999 7.50069 6.87407 7.38716C7.14816 7.27363 7.38243 7.08137 7.54725 6.8347C7.71208 6.58802 7.80005 6.29801 7.80005 6.00134C7.80005 5.60352 7.64201 5.22199 7.36071 4.94068C7.07941 4.65938 6.69787 4.50134 6.30005 4.50134Z" fill="white"/>
</svg>
